<svg xmlns="http://www.w3.org/2000/svg" width="80" height="75.842" viewBox="0 0 80 75.842"><g transform="translate(-6.5 -7.41)"><g transform="translate(6.5 7.41)"><g transform="translate(3.862)"><path d="M16.205,33.006l1.059,5.347a1.256,1.256,0,0,0,.838.993,1.023,1.023,0,0,0,.341.039A1.094,1.094,0,0,0,19.3,39l4.614-5.044C29.526,33.46,34,30.6,35.7,26.737a16.39,16.39,0,0,0,4.075,1.607l3.448,5.575a1.176,1.176,0,0,0,2.022,0l3.453-5.575a16.3,16.3,0,0,0,4.075-1.607c1.7,3.862,6.165,6.726,11.783,7.221L69.16,39a1.11,1.11,0,0,0,.861.383.99.99,0,0,0,.336-.039,1.26,1.26,0,0,0,.843-.993l1.054-5.347c4.954-1.757,8.119-5.5,8.119-9.706,0-5.92-6.363-10.735-14.177-10.735a17.419,17.419,0,0,0-8.528,2.18C55.79,10.5,50.481,7.41,44.223,7.41c-6.24,0-11.549,3.095-13.427,7.335a17.485,17.485,0,0,0-8.528-2.18c-7.814,0-14.177,4.815-14.177,10.735C8.091,27.5,11.255,31.249,16.205,33.006ZM66.2,15.126c6.488,0,11.765,3.665,11.765,8.172,0,3.211-2.771,6.153-7.081,7.454a1.311,1.311,0,0,0-.838.993l-.736,3.745-3.362-3.709a1.206,1.206,0,0,0-.784-.379c-5.022-.306-9.12-2.828-10.336-6.114A9.334,9.334,0,0,0,58.4,18.145c0-.306-.036-.57-.055-.881A14.906,14.906,0,0,1,66.2,15.126ZM44.223,10c6.488,0,11.765,3.631,11.765,8.138,0,3.517-3.4,6.726-8.278,7.757a1.284,1.284,0,0,0-.75.57l-2.717,4.393L41.526,26.47a1.374,1.374,0,0,0-.768-.57c-4.882-1.034-8.3-4.24-8.3-7.757C32.458,13.636,37.731,10,44.223,10ZM22.268,15.126a14.928,14.928,0,0,1,7.846,2.1,8.27,8.27,0,0,0-.07.915,9.436,9.436,0,0,0,3.591,7.182C32.42,28.572,28.326,31.094,23.3,31.4a1.277,1.277,0,0,0-.788.379l-3.362,3.709-.731-3.745a1.309,1.309,0,0,0-.843-.993c-4.307-1.3-7.078-4.24-7.078-7.454C10.5,18.793,15.776,15.126,22.268,15.126Z" transform="translate(-8.091 -7.41)" fill="#fb8500"/></g><g transform="translate(0 26.252)"><path d="M86.5,51.944a16.137,16.137,0,0,0-6.672-12.8,9.706,9.706,0,0,0,1.474-5.16C81.3,29.367,78.1,26,73.675,26c-4.409,0-7.611,3.364-7.611,7.985a9.7,9.7,0,0,0,1.458,5.16,15.811,15.811,0,0,0-6.046,8.786h-2.3a11.523,11.523,0,0,0,.144-1.8A16.219,16.219,0,0,0,52.646,33.3a9.566,9.566,0,0,0,1.474-5.116c0-4.662-3.2-8.024-7.627-8.024-4.407,0-7.611,3.362-7.611,8.024a9.7,9.7,0,0,0,1.477,5.155,16.105,16.105,0,0,0-6.695,12.8,14.767,14.767,0,0,0,.144,1.8H31.561a16.014,16.014,0,0,0-6.08-8.825,9.46,9.46,0,0,0,1.456-5.121c0-4.621-3.2-7.985-7.607-7.985s-7.63,3.364-7.63,7.985a9.708,9.708,0,0,0,1.477,5.16A16.132,16.132,0,0,0,6.5,51.944a10.077,10.077,0,0,0,6.135,9.742L9.22,67.8A1.376,1.376,0,0,0,9.2,69.1a1.187,1.187,0,0,0,1.061.65H82.724a1.165,1.165,0,0,0,1.061-.65,1.351,1.351,0,0,0-.018-1.3l-3.438-6.15A10.09,10.09,0,0,0,86.5,51.944ZM73.675,28.566a5.076,5.076,0,0,1,5.2,5.422c0,3.4-2.32,6.189-5.2,6.189-2.862,0-5.184-2.789-5.184-6.189A5.065,5.065,0,0,1,73.675,28.566Zm-27.182-5.81a5.08,5.08,0,0,1,5.2,5.427c0,3.4-2.32,6.189-5.2,6.189-2.862,0-5.2-2.789-5.2-6.189A5.079,5.079,0,0,1,46.493,22.756Zm-4.5,12.456a7,7,0,0,0,4.5,1.718,6.875,6.875,0,0,0,4.48-1.677,13.269,13.269,0,0,1,5.918,10.888,9.25,9.25,0,0,1-.162,1.8H36.274a9.516,9.516,0,0,1-.176-1.8A13.406,13.406,0,0,1,41.995,35.212ZM19.33,28.566a5.076,5.076,0,0,1,5.2,5.422c0,3.4-2.341,6.189-5.2,6.189s-5.2-2.789-5.2-6.189A5.075,5.075,0,0,1,19.33,28.566ZM8.932,51.944a13.293,13.293,0,0,1,5.9-10.888,6.85,6.85,0,0,0,8.992,0,12.755,12.755,0,0,1,5.2,6.878H21a1.145,1.145,0,0,0-1.042.65L13.894,59.434A7.469,7.469,0,0,1,8.932,51.944ZM80.6,67.191H12.383l9.3-16.7H71.3Zm-1.495-7.759-6.08-10.849a1.156,1.156,0,0,0-1.042-.65H63.977a12.866,12.866,0,0,1,5.2-6.878,6.965,6.965,0,0,0,4.5,1.682,6.871,6.871,0,0,0,4.494-1.682,13.249,13.249,0,0,1,5.9,10.888A7.454,7.454,0,0,1,79.106,59.432Z" transform="translate(-6.5 -20.159)" fill="#fb8500"/></g></g><g transform="translate(18.955 74.976)"><path d="M65.9,39.608H13.841a1.214,1.214,0,0,1,0-2.427H65.895a1.214,1.214,0,0,1,0,2.427Z" transform="translate(-12.627 -37.181)" fill="#fb8500"/></g><g transform="translate(18.818 19.582)"><path d="M17.643,14.852H12.789a1.214,1.214,0,0,1,0-2.427h4.854a1.214,1.214,0,1,1,0,2.427Z" transform="translate(-11.575 -12.425)" fill="#fb8500"/></g><g transform="translate(18.818 23.413)"><path d="M22.5,16.852H12.789a1.214,1.214,0,1,1,0-2.427H22.5a1.214,1.214,0,0,1,0,2.427Z" transform="translate(-11.575 -14.425)" fill="#fb8500"/></g><g transform="translate(67.265 19.582)"><path d="M39.643,14.852H34.789a1.214,1.214,0,1,1,0-2.427h4.854a1.214,1.214,0,1,1,0,2.427Z" transform="translate(-33.575 -12.425)" fill="#fb8500"/></g><g transform="translate(62.411 23.413)"><path d="M42.5,16.852H32.789a1.214,1.214,0,1,1,0-2.427H42.5a1.214,1.214,0,1,1,0,2.427Z" transform="translate(-31.575 -14.425)" fill="#fb8500"/></g></g></svg>