<svg xmlns="http://www.w3.org/2000/svg" width="52.016" height="72.855" viewBox="0 0 52.016 72.855"><g transform="translate(-125.423 11.217)"><g transform="translate(125.423 -11.217)"><path d="M56.989,53.188l-1.434,3.044a11.855,11.855,0,0,1-3.824,4.3l-6.643,4.512a11.72,11.72,0,0,1-6.617,2.035H25.731l-.5.553.517.6a1.835,1.835,0,0,1,.075,2.311l-3.166,4.18A1.837,1.837,0,0,1,19.727,72.5L21.993,69.5l-5.366-6.2a1.837,1.837,0,1,1,2.778-2.4l3.4,3.928L23.558,64a1.84,1.84,0,0,1,1.36-.6H38.471A8.063,8.063,0,0,0,43.022,62l6.645-4.512a8.126,8.126,0,0,0,2.6-2.9l1.394-2.963a1.049,1.049,0,0,0-.449-1.367,1.807,1.807,0,0,0-2.482.786L49.4,53.733a1.844,1.844,0,0,1-1.256.982l-2.562.558a4.572,4.572,0,0,1-4.571,5.02H29a1.838,1.838,0,1,1,0-3.675H41.014A.935.935,0,0,0,41.662,55l-.021-.023a.947.947,0,0,0-.512-.237l-7.853-.967a1.839,1.839,0,0,1-1.023-.474l-.863-.8a4.773,4.773,0,0,0-3.252-1.274h-5.5a4.821,4.821,0,0,0-3.794,1.866l-3.824,4.96a1.74,1.74,0,0,1-.151.131,1.764,1.764,0,0,1-.118.153,1.729,1.729,0,0,1-.166.094,1.958,1.958,0,0,1-.688.292,1.8,1.8,0,0,1-.208.025,1.778,1.778,0,0,1-.516-.033c-.05-.011-.1-.024-.145-.039a1.778,1.778,0,0,1-.521-.257c-.02-.014-.044-.016-.063-.031s-.028-.038-.047-.054a1.732,1.732,0,0,1-.237-.183l-1.183-1.366L8.69,59.612A1.839,1.839,0,0,1,5.834,57.3l3.673-4.533a1.838,1.838,0,0,1,2.817-.045l1.149,1.328,2.465-3.2a8.519,8.519,0,0,1,6.7-3.3h5.495a8.433,8.433,0,0,1,5.746,2.25l.429.4,7.264.9a4.546,4.546,0,0,1,2.051.842l2.873-.625.939-1.9a5.483,5.483,0,0,1,7.532-2.387A4.726,4.726,0,0,1,56.989,53.188ZM29.448,24.079l1.507,1.433C32.058,26.542,33.6,27.975,33.6,29a2.118,2.118,0,1,1-4.227-.184,1.874,1.874,0,0,0-1.691-1.985A1.806,1.806,0,0,0,25.7,28.526c0,.037-.037.441-.037.478a5.751,5.751,0,0,0,3.969,5.476V35.4a1.838,1.838,0,1,0,3.675,0V34.48A5.751,5.751,0,0,0,37.277,29a8.037,8.037,0,0,0-3.161-5.549c-.221-.221-.441-.441-.662-.625L31.947,21.4c-1.1-1.029-2.646-2.462-2.646-3.491a2.118,2.118,0,1,1,4.227.184,1.874,1.874,0,0,0,1.691,1.985A1.806,1.806,0,0,0,37.2,18.383c0-.037.037-.441.037-.478a5.75,5.75,0,0,0-3.969-5.476V11.51a1.838,1.838,0,1,0-3.675,0v.919A5.75,5.75,0,0,0,25.626,17.9a8.038,8.038,0,0,0,3.161,5.55C29.007,23.675,29.228,23.9,29.448,24.079Zm-18.89-.617A20.874,20.874,0,1,1,31.433,44.337,20.874,20.874,0,0,1,10.559,23.463Zm3.675,0a17.2,17.2,0,1,0,17.2-17.2,17.2,17.2,0,0,0-17.2,17.2Z" transform="translate(-5.423 -2.588)" fill="#fb8500"/></g></g></svg>