<svg xmlns="http://www.w3.org/2000/svg" width="441.075" height="459.082" viewBox="0 0 441.075 459.082"><path d="M429.413,401.245l-.009.207,10.355,109.5H364.2L354.4,443.7l-4.311,65.528-77.6-.862,8.243-86.031,7.01-39.877v-.009l1.052-6H427.353l.181,2.173Z" transform="translate(-37.546 -51.871)" fill="#2f2e41"/><path d="M221.137,439.1c8,1.458,16.348-7.555,18.639-20.131a31.994,31.994,0,0,0-.673-15.094l1.227-7.249L260.922,299.1s37.92-75.853,37.919-89.022-10.969-19.626-10.969-19.626l-14.842.139-46.544,113.68L218.1,388.273,216.747,399.8a31.992,31.992,0,0,0-5.952,13.887c-2.291,12.576,2.339,23.953,10.342,25.411Z" transform="translate(-28.965 -26.242)" fill="#ffb6b6"/><path d="M388.139,130.85l-13.8-31.9-44.835,7.76-3.018,37.534Z" transform="translate(-44.987 -13.634)" fill="#ffb6b6"/><path d="M388.139,130.85l-13.8-31.9-44.835,7.76-3.018,37.534Z" transform="translate(-44.987 -13.634)" opacity="0.1"/><path d="M472.134,198.369s-31.9-59.493-37.937-65.528c-2.687-2.687-6.91-2.724-10.772-1.941l-44.41-15.3-15.052-8.458-.992,16.091-49.418,8.87c.275-9.813,1.659-13.545,1.659-13.545l-18.106,21.184-35.351,17.244.019.155a14.064,14.064,0,0,0-6.917,5.018c-6.9,9.484-25.866,125.021-25.866,125.021l40.524,8.622,5.515-34.609L279,292.35l3.018,58.2s55.181,47.422,81.91,30.177,59.493-16.382,59.493-16.382l.818-26.977c.582-.93.907-1.476.907-1.476l-.862-95.692V214.737c6.568,9.151,14.5,17.021,23.711,20.707,30.177,12.071,24.142-37.075,24.142-37.075Z" transform="translate(-31.553 -14.763)" fill="#e6e6e6"/><circle cx="41.247" cy="41.247" r="41.247" transform="translate(261.006 16.194)" fill="#ffb6b6"/><path d="M372.081,69.1s3.587-12.553,11.657-11.657,9.863-6.277,8.07-9.863-5.38-21.52-5.38-21.52,1.793-12.553-8.967-14.347-14.347-3.587-16.14-7.173-28.693-7.173-37.66-1.793-16.14,15.7-22.417,18.611-11.657,8.289-8.07,17.256,8.788,26.5,8.788,26.5,9.145-3.19,10.938,2.19-5.38-1.793,3.587-16.14S325.454,22.47,339.8,27.85s30.487,3.587,28.693,14.347,3.587,26.9,3.587,26.9Z" transform="translate(-40.238 0)" fill="#2f2e41"/><g transform="translate(0 197.554)"><path d="M329.32,427.657H16.066A16.084,16.084,0,0,1,0,411.591v-166.4a16.084,16.084,0,0,1,16.066-16.066H329.32a16.084,16.084,0,0,1,16.066,16.066v166.4a16.084,16.084,0,0,1-16.066,16.066Z" transform="translate(0 -229.125)" fill="#fff"/><path d="M329.32,427.657H16.066A16.084,16.084,0,0,1,0,411.591v-166.4a16.084,16.084,0,0,1,16.066-16.066H329.32a16.084,16.084,0,0,1,16.066,16.066v166.4a16.084,16.084,0,0,1-16.066,16.066ZM16.066,231.807A13.4,13.4,0,0,0,2.683,245.19v166.4a13.4,13.4,0,0,0,13.383,13.383H329.32A13.4,13.4,0,0,0,342.7,411.591v-166.4a13.4,13.4,0,0,0-13.383-13.383H16.066Z" transform="translate(0 -229.125)" fill="#3f3d56"/><circle cx="4.024" cy="4.024" r="4.024" transform="translate(301.119 12.072)" fill="#3f3d56"/><circle cx="4.024" cy="4.024" r="4.024" transform="translate(311.851 12.072)" fill="#3f3d56"/><circle cx="4.024" cy="4.024" r="4.024" transform="translate(322.582 12.072)" fill="#3f3d56"/><path d="M26.127,323.251a2.014,2.014,0,0,0-2.012,2.012,2.031,2.031,0,0,0,2.012,2.012h301.12a2.014,2.014,0,0,0,2.012-2.012,2.031,2.031,0,0,0-2.012-2.012Z" transform="translate(-3.323 -242.094)" fill="#e6e6e6"/><path d="M289.579,322.473v5.366H26.02a2.7,2.7,0,0,1-2.683-2.683,2.691,2.691,0,0,1,2.683-2.683Z" transform="translate(-3.216 -241.987)" fill="#fb8500"/><path d="M366.655,309.09H339.826a5.366,5.366,0,1,1,0-10.731h26.829a5.366,5.366,0,1,1,0,10.731Z" transform="translate(-46.085 -238.664)" fill="#e6e6e6"/><path d="M147.951,276.418H27.925a5.366,5.366,0,0,1,0-10.731H147.951a5.366,5.366,0,1,1,0,10.731Z" transform="translate(-3.108 -234.163)" fill="#e6e6e6"/><path d="M26.127,393.262a2.014,2.014,0,0,0-2.012,2.012,2.031,2.031,0,0,0,2.012,2.012h301.12a2.014,2.014,0,0,0,2.012-2.012,2.031,2.031,0,0,0-2.012-2.012Z" transform="translate(-3.323 -251.741)" fill="#e6e6e6"/><path d="M186.289,392.484v5.366H26.02a2.7,2.7,0,0,1-2.683-2.683,2.691,2.691,0,0,1,2.683-2.683Z" transform="translate(-3.216 -251.634)" fill="#fb8500"/><path d="M366.655,379.1H339.826a5.366,5.366,0,1,1,0-10.731h26.829a5.366,5.366,0,1,1,0,10.731Z" transform="translate(-46.085 -248.311)" fill="#e6e6e6"/></g><g transform="translate(325.526 19.608)"><ellipse cx="42.012" cy="41.127" rx="42.012" ry="41.127" fill="#fb8500"/><path d="M437.843,46.228l-16.78,30.554q-5.347-9.448-10.684-18.9c-1.234-2.174-4.591-.219-3.354,1.96,4.142,7.3,8.242,14.615,12.385,21.911a1.959,1.959,0,0,0,3.354,0L441.2,48.188c1.2-2.192-2.149-4.154-3.354-1.96Z" transform="translate(-381.572 -25.845)" fill="#fff"/></g><path d="M480.664,185.394,438.806,165.37s-1.681-13.4-9.531-18.182c-1.335-3.184-2.87-6.681-4.264-9.453-3.449-6.854,1.724-19.787-2.587-19.787s-10.684,13.6-10.347,17.244c.259,2.8,2.57,7.678,3.047,11.951a36.879,36.879,0,0,0-12.286,8.087,9.076,9.076,0,0,0-2.367,9.062c2.733,9.352,9.563,28.668,19.365,28.668,12.933,0,16.382-2.587,16.382-2.587S462.948,224,482.779,226.587s-2.115-41.193-2.115-41.193Z" transform="translate(-55.13 -16.252)" fill="#ffb6b6"/></svg>