<?xml version="1.0" encoding="UTF-8"?>
<svg xmlns="http://www.w3.org/2000/svg" version="1.1" viewBox="0 0 169.8 165.9">
  <defs>
    <style>
      .cls-1 {
        fill: #fb8500;
      }
    </style>
  </defs>
  <!-- Generator: Adobe Illustrator 28.6.0, SVG Export Plug-In . SVG Version: 1.2.0 Build 709)  -->
  <g>
    <g id="Layer_1">
      <path class="cls-1" d="M91.1,126.2c0,1.2-.9,2.1-2.1,2.1,0,0,0,0,0,0h-8.2c-1.2,0-2.1-1-2.1-2.1,0-1.2,1-2.1,2.1-2.1h8.2c1.2,0,2.1.9,2.1,2.1,0,0,0,0,0,0h0ZM74.7,111.1c1.2,0,2.1-.9,2.1-2.1,0,0,0,0,0,0v-8.2c0-1.2-1-2.1-2.1-2.1-1.2,0-2.1,1-2.1,2.1h0v8.2c0,1.2.9,2.1,2.1,2.1,0,0,0,0,0,0ZM84.7,111.1c1.2,0,2.1-.9,2.1-2.1,0,0,0,0,0,0v-8.2c0-1.2-1-2.1-2.1-2.1s-2.1,1-2.1,2.1h0v8.2c0,1.2.9,2.1,2.1,2.1ZM95.3,111.1h0c1.2,0,2.1-1,2.1-2.1h0v-8.2c0-1.2-1-2.1-2.1-2.1s-2.1,1-2.1,2.1h0v8.2c0,1.1.9,2.1,2,2.1h0ZM85,42.3h0c5.6,0,10.1-4.6,10-10.1s-4.6-10.1-10.1-10-10.1,4.6-10,10.1c0,5.5,4.5,10,10,10h0ZM90.8,43.3c3.2,0,5.8,2.6,5.8,5.8,0,3.2-2.6,5.8-5.8,5.8-3.2,0-5.8-2.6-5.8-5.8,0-3.2,2.6-5.7,5.8-5.8h0ZM30.5,63.7c.8.8,2.2.8,3,0l9.4-9.4c.8-.8.8-2.2,0-3l-9.4-9.4c-.8-.8-2.2-.8-3,0-.8.8-.8,2.2,0,3,0,0,0,0,0,0l7.9,7.9-7.9,7.9c-.8.8-.8,2.2,0,3,0,0,0,0,0,0ZM19,63.7c.8.8,2.2.8,3,0s.8-2.2,0-3h0l-7.9-7.8,7.9-7.9c.8-.8.8-2.2,0-3,0,0,0,0,0,0-.8-.8-2.2-.8-3,0l-9.4,9.4c-.8.8-.8,2.2,0,3l9.4,9.3ZM39,72H13.5c-1.2,0-2.1,1-2.1,2.1s1,2.1,2.1,2.1h25.5c1.2,0,2.1-1,2.1-2.1s-1-2.1-2.1-2.1ZM39,84.4H13.5c-1.2,0-2.1,1-2.1,2.1s1,2.1,2.1,2.1h25.5c1.2,0,2.1-1,2.1-2.1s-1-2.1-2.1-2.1ZM39,99.1H13.5c-1.2,0-2.1,1-2.1,2.1,0,1.2,1,2.1,2.1,2.1h25.5c1.2,0,2.1-1,2.1-2.1,0-1.2-1-2.1-2.1-2.1h0ZM131.7,51h25.5c1.2,0,2.1-1,2.1-2.1,0-1.2-1-2.1-2.1-2.1h-25.5c-1.2,0-2.1,1-2.1,2.1,0,1.2,1,2.1,2.1,2.1h0ZM131.7,63.4h25.5c1.2,0,2.1-1,2.1-2.1,0-1.2-1-2.1-2.1-2.1h-25.5c-1.2,0-2.1,1-2.1,2.1s1,2.1,2.1,2.1h0ZM131.7,78.1h25.5c1.2,0,2.1-1,2.1-2.1,0-1.2-1-2.1-2.1-2.1h-25.5c-1.2,0-2.1,1-2.1,2.1s1,2.1,2.1,2.1h0ZM131.7,90h25.5c1.2,0,2.1-1,2.1-2.1,0-1.2-1-2.1-2.1-2.1h-25.5c-1.2,0-2.1,1-2.1,2.1s1,2.1,2.1,2.1h0ZM131.7,102.4h25.5c1.2,0,2.1-1,2.1-2.1,0-1.2-1-2.1-2.1-2.1h-25.5c-1.2,0-2.1,1-2.1,2.1s1,2.1,2.1,2.1h0ZM169.8,39v88.7c0,5.1-4.2,9.3-9.3,9.3h-57.7v10.5c5.2.5,9.8,3.4,12.5,7.9l1.9,3c1.5,2.2.9,5.2-1.4,6.7-.8.5-1.8.8-2.7.8h-56.5c-2.7,0-4.8-2.2-4.8-4.9,0-.9.3-1.8.7-2.5l1.9-3c2.8-4.4,7.4-7.3,12.5-7.8v-10.6H9.3C4.2,137,0,132.9,0,127.7V39c0-5.1,4.2-9.3,9.3-9.3h57.8c.4-1.7.8-3.4,1.3-5.1.9-3,2-6,3.4-8.8,0-.1,0-.3.2-.4,1.8-3.8,3.9-7.4,6.4-10.9l1.4-1.9c2-2.9,6-3.5,8.9-1.5.6.4,1.1.9,1.5,1.5l1.4,1.9c2.5,3.4,4.6,7,6.4,10.9,0,.1.1.3.2.4,1.3,2.9,2.5,5.8,3.4,8.8.5,1.7.9,3.4,1.3,5.1h57.8c5.1,0,9.3,4.2,9.3,9.3h0ZM89.4,74.8c0-.6-.5-1.1-1.1-1.1h-6.7c-.6,0-1.1.5-1.1,1.1v17.2c0,.6.5,1.1,1.1,1.1h6.7c.6,0,1.1-.5,1.1-1.1v-1.4c-.2-.3-.3-.7-.3-1,0-.4.1-.7.3-1v-13.7ZM93.7,74.8v12.6h2.1c1.8,0,3.3-1.3,3.6-3l.9-5.1c3.1-17.8,2.1-36.1-3-53.5-.7-2.5-1.7-4.9-2.7-7.3h-19.4c-1.1,2.4-2,4.8-2.7,7.3-5.1,17.4-6.1,35.7-3,53.5l.9,5.1c.3,1.8,1.8,3,3.6,3h2.1v-12.6c0-3,2.4-5.4,5.4-5.4h6.7c3,0,5.4,2.3,5.4,5.3,0,0,0,0,0,0h0ZM63.6,52.4l-12,6.6h0c-1.1.6-1.8,1.7-1.8,3v13.9c0,1.9,1.5,3.4,3.4,3.4.5,0,.9,0,1.3-.3l9.8-4.3c-1-7.4-1.3-14.9-.9-22.4h0ZM105.3,74.8l9.8,4.3c1.7.7,3.8,0,4.5-1.8.2-.4.3-.9.3-1.3v-14c0-1.2-.7-2.4-1.8-3l-11.9-6.6c.4,7.5,0,15-.9,22.4ZM77.3,14.2h15.3c-1.3-2.5-2.9-4.9-4.5-7.2l-1.3-1.8c-.8-1-2.2-1.1-3.2-.3-.1.1-.2.2-.3.3l-1.3,1.8c-1.7,2.3-3.2,4.7-4.5,7.2ZM4.3,39v74.9h161.3V39c0-2.8-2.3-5-5-5h-56.8c1,4.4,1.7,8.9,2.1,13.3l14.3,7.9c2.5,1.4,4,3.9,4,6.7v13.9c0,4.2-3.4,7.7-7.7,7.7-1,0-2.1-.3-3-.7l-8.8-3.8v1c-.1,0-1,5.1-1,5.1-.7,3.8-4,6.6-7.8,6.6h-2.1v.3c0,3-2.4,5.4-5.4,5.4h-6.8c-3,0-5.4-2.4-5.4-5.4h0v-.3h-2.1c-3.8,0-7.1-2.8-7.8-6.6l-.9-5.1v-1c-.1,0-9,3.8-9,3.8-3.9,1.7-8.4-.2-10.1-4-.4-1-.6-2-.6-3v-13.9c0-2.8,1.5-5.3,4-6.7l14.4-7.9h0c.5-4.5,1.2-8.9,2.1-13.3H9.3c-2.8,0-5,2.2-5,5h0ZM101,151.8h-32.1c-4.4,0-8.5,2.2-10.8,6l-1.9,3c-.1.2-.1.4,0,.6,0,.2.3.3.5.3h56.5c.2,0,.4-.1.5-.3.1-.2.1-.4,0-.6l-1.9-3c-2.3-3.8-6.4-6.1-10.8-6.1h0ZM98.6,137.1h-27.3v10.4h27.3s0-10.4,0-10.4ZM165.6,127.8v-9.6H4.3v9.6c0,2.8,2.3,5,5,5.1h151.3c2.8,0,5-2.3,5-5.1h0Z"/>
    </g>
  </g>
</svg>