<svg xmlns="http://www.w3.org/2000/svg" width="95.036" height="53.778" viewBox="0 0 95.036 53.778"><g transform="translate(-2.492 -23.122)"><path d="M46.2,34.6a36.107,36.107,0,0,1,12.7,3.3c3.5-2.7,7.5-5.7,12.3-9.3a48.812,48.812,0,0,0-25-5.4A46.965,46.965,0,0,0,13.8,38.7,44.944,44.944,0,0,0,2.5,64.8a1.947,1.947,0,0,0,1.9,2.1h0a2.039,2.039,0,0,0,1.9-1.5A39.348,39.348,0,0,1,18.9,43.9,37.248,37.248,0,0,1,46.2,34.6Z" fill="#fb8500"/><path d="M83.6,37.8c-3.9,5.1-7.2,9.5-10,13.2a33.788,33.788,0,0,1,4.8,14.2,1.943,1.943,0,0,0,1.9,1.7H95.6a1.955,1.955,0,0,0,1.9-2.3A51.4,51.4,0,0,0,83.6,37.8Z" fill="#fb8500"/><path d="M81.6,30.8A1.139,1.139,0,0,0,80,29.2c-8.3,6.3-22.8,17.2-31,23.6a12.606,12.606,0,0,0-2.8-.4A12.4,12.4,0,0,0,34,64.7a12.2,12.2,0,0,0,24.4,0,8.627,8.627,0,0,0-.4-2.8C64.4,53.6,75.3,39.2,81.6,30.8Z" fill="#fb8500"/></g></svg>