<svg xmlns="http://www.w3.org/2000/svg" width="214.812" height="226.176" viewBox="0 0 214.812 226.176">
  <g id="track_icon" data-name="track icon" transform="translate(-18.704 -6.5)">
    <path id="Path_39" data-name="Path 39" d="M30.262,77.076A16.928,16.928,0,1,0,47.19,94,16.948,16.948,0,0,0,30.262,77.076Zm0,31.131A14.2,14.2,0,1,1,44.465,94,14.219,14.219,0,0,1,30.262,108.207Z" transform="translate(18.311 121.744)" fill="#fb8500"/>
    <path id="Path_40" data-name="Path 40" d="M37.195,67.7A14.3,14.3,0,1,0,22.889,82,14.322,14.322,0,0,0,37.195,67.7Z" transform="translate(10.119 80.888)" fill="#fb8500"/>
    <path id="Path_41" data-name="Path 41" d="M70.866,54.886A13.624,13.624,0,1,0,84.491,68.511,13.641,13.641,0,0,0,70.866,54.886Z" transform="translate(94.051 83.466)" fill="#fb8500"/>
    <path id="Path_42" data-name="Path 42" d="M56.561,55.618a11.872,11.872,0,1,0-11.873-11.87A11.886,11.886,0,0,0,56.561,55.618Zm0-21.021a9.146,9.146,0,1,1-9.148,9.148A9.157,9.157,0,0,1,56.561,34.6Z" transform="translate(72.397 43.772)" fill="#fb8500"/>
    <path id="Path_43" data-name="Path 43" d="M96.562,29,56.251,41.708a1.363,1.363,0,0,0,.411,2.662,1.4,1.4,0,0,0,.409-.063L97.382,31.6a1.362,1.362,0,1,0-.82-2.6Z" transform="translate(90.7 38.708)" fill="#fb8500"/>
    <path id="Path_44" data-name="Path 44" d="M52.636,41.98a1.361,1.361,0,0,0-.526,1.853L68.95,74.018a1.361,1.361,0,1,0,2.379-1.324L54.489,42.509a1.364,1.364,0,0,0-1.853-.526Z" transform="translate(84.9 60.912)" fill="#fb8500"/>
    <path id="Path_45" data-name="Path 45" d="M111.385,60.991l-88.4-2.85h-.046a1.363,1.363,0,0,0-.046,2.725l88.4,2.85h.046a1.363,1.363,0,0,0,.046-2.725Z" transform="translate(32.533 89.081)" fill="#fb8500"/>
    <path id="Path_46" data-name="Path 46" d="M16.147,65.757a1.362,1.362,0,0,0-1.019,1.638l5.387,23.25A1.369,1.369,0,0,0,21.842,91.7a1.335,1.335,0,0,0,.308-.035,1.362,1.362,0,0,0,1.019-1.638l-5.387-23.25a1.357,1.357,0,0,0-1.638-1.019Z" transform="translate(21.343 102.159)" fill="#fb8500"/>
    <path id="Path_47" data-name="Path 47" d="M105.019,21.362l6.663-8.118a1.363,1.363,0,0,0-1.055-2.226H84.107V7.863a1.363,1.363,0,0,0-2.725,0v46.47a9.579,9.579,0,1,0,2.725,0V31.709h26.52a1.363,1.363,0,0,0,1.055-2.226l-6.663-8.118Z" transform="translate(121.527 0)" fill="#fb8500"/>
  </g>
</svg>
