<svg xmlns="http://www.w3.org/2000/svg" width="84.9" height="75.079" viewBox="0 0 84.9 75.079"><g transform="translate(-15.906 -124.9)"><g transform="translate(15.906 124.9)"><path d="M390.536,332.755a1.274,1.274,0,0,1-.9-.367l-6.052-5.969a1.285,1.285,0,0,1,1.8-1.834l5.152,5.085,4-4L389.4,320.6a1.285,1.285,0,1,1,1.8-1.834l6.069,5.969a1.236,1.236,0,0,1,.383.9,1.273,1.273,0,0,1-.383.917l-5.8,5.8A1.376,1.376,0,0,1,390.536,332.755Z" transform="translate(-335.214 -286.137)" fill="#fb8500"/><g transform="translate(41.274 33.088)"><path d="M440.425,430.67a1.247,1.247,0,0,1-.9-.367,1.288,1.288,0,0,1,0-1.817l5.535-5.569a1.222,1.222,0,0,1,.95-.383,4.326,4.326,0,0,0,3.751-1.284l14.022-14.022a1.268,1.268,0,0,0,.017-1.8l-.734-.734a1.288,1.288,0,0,0-1.817,0l-1.817,1.817a1.285,1.285,0,0,1-1.817-1.817l1.817-1.817a3.844,3.844,0,0,1,5.435,0l.734.734a3.824,3.824,0,0,1,1.134,2.718,3.767,3.767,0,0,1-1.134,2.718L451.58,423.067a6.722,6.722,0,0,1-5.1,2.034l-5.152,5.185A1.236,1.236,0,0,1,440.425,430.67Z" transform="translate(-423.11 -388.678)" fill="#fb8500"/><path d="M344.225,392.716a1.264,1.264,0,0,1-.9-.383,1.288,1.288,0,0,1,0-1.817l3.952-3.952a8.227,8.227,0,0,1,2-9.587l3.551-3.551a1.285,1.285,0,0,1,1.817,1.817l-3.551,3.551c-2.234,2.234-2.584,4.535-1.134,7.486a1.267,1.267,0,0,1-.25,1.467l-4.568,4.568A1.253,1.253,0,0,1,344.225,392.716Z" transform="translate(-342.95 -364.763)" fill="#fb8500"/><path d="M527.177,385.045a1.264,1.264,0,0,1-.9-.383,1.288,1.288,0,0,1,0-1.817l1.817-1.817a1.268,1.268,0,0,0,.017-1.8l-.734-.734a1.288,1.288,0,0,0-1.817,0l-1.817,1.817a1.285,1.285,0,0,1-1.817-1.817l1.817-1.817a3.844,3.844,0,0,1,5.435,0l.734.734a3.824,3.824,0,0,1,0,5.435l-1.817,1.817A1.3,1.3,0,0,1,527.177,385.045Z" transform="translate(-491.772 -366.847)" fill="#fb8500"/><path d="M500.994,358.929a1.264,1.264,0,0,1-.9-.383,1.288,1.288,0,0,1,0-1.817l1.817-1.817a1.288,1.288,0,0,0,0-1.817l-.734-.734a1.288,1.288,0,0,0-1.817,0l-1.817,1.851a1.285,1.285,0,0,1-1.817-1.817l1.817-1.817a3.844,3.844,0,0,1,5.435,0l.734.734a3.844,3.844,0,0,1,0,5.435l-1.817,1.817A1.247,1.247,0,0,1,500.994,358.929Z" transform="translate(-469.94 -345.098)" fill="#fb8500"/><path d="M407.826,338.931a1.264,1.264,0,0,1-.9-.383,1.288,1.288,0,0,1,0-1.817l12.288-12.255a3.844,3.844,0,0,1,5.435,0l.734.734a3.824,3.824,0,0,1,1.134,2.718,3.767,3.767,0,0,1-1.134,2.718l-1.817,1.817a1.285,1.285,0,0,1-1.817-1.817l1.817-1.817a1.264,1.264,0,0,0,.383-.9,1.288,1.288,0,0,0-.367-.9l-.734-.734a1.288,1.288,0,0,0-1.817,0l-12.288,12.255A1.331,1.331,0,0,1,407.826,338.931Z" transform="translate(-395.946 -323.35)" fill="#fb8500"/></g><path d="M214.809,168.517a21.809,21.809,0,1,1,21.809-21.809A21.838,21.838,0,0,1,214.809,168.517Zm0-41.066a19.241,19.241,0,1,0,19.241,19.241A19.269,19.269,0,0,0,214.809,127.451Z" transform="translate(-176.727 -124.9)" fill="#fb8500"/><g transform="translate(22.391 13.022)"><path d="M245.532,220.473c-6.936-.133-12.255-4.819-14.806-7.069l-.584-.517a1.343,1.343,0,0,1-.45-.9,1.268,1.268,0,0,1,.333-.934c4.819-5.235,10-7.936,15.439-8.053h.05c5.435.117,10.621,2.834,15.439,8.053a1.307,1.307,0,0,1,.333.95,1.276,1.276,0,0,1-.45.9l-.584.517C257.736,215.655,252.418,220.323,245.532,220.473Zm-12.688-8.637c2.584,2.268,7.053,5.952,12.688,6.069,5.586-.117,10.054-3.8,12.638-6.069-4.035-4.068-8.3-6.169-12.672-6.286C241.147,205.651,236.878,207.769,232.843,211.837Z" transform="translate(-229.691 -203)" fill="#fb8500"/><path d="M281.687,220.973a8.587,8.587,0,1,1,8.587-8.587A8.6,8.6,0,0,1,281.687,220.973Zm0-14.589a6.019,6.019,0,1,0,6.019,6.019A6.027,6.027,0,0,0,281.687,206.384Z" transform="translate(-265.862 -203.667)" fill="#fb8500"/></g><g transform="translate(64.166 0.827)"><path d="M499.7,232.368h-6.419a1.284,1.284,0,1,1,0-2.568H499.7a1.284,1.284,0,1,1,0,2.568Z" transform="translate(-490.04 -213.136)" fill="#fb8500"/><path d="M481.519,134.983a1.249,1.249,0,0,1-1.167-.767,1.271,1.271,0,0,1,.65-1.684l5.819-2.568a1.285,1.285,0,0,1,1.684.65,1.271,1.271,0,0,1-.65,1.684l-5.819,2.568A1.165,1.165,0,0,1,481.519,134.983Z" transform="translate(-480.242 -129.857)" fill="#fb8500"/></g><path d="M103.1,232.368H96.684a1.284,1.284,0,1,1,0-2.568H103.1a1.284,1.284,0,1,1,0,2.568Z" transform="translate(-95.4 -212.31)" fill="#fb8500"/><path d="M117.9,134.971a1.166,1.166,0,0,1-.517-.117l-5.819-2.568a1.262,1.262,0,0,1-.65-1.684,1.276,1.276,0,0,1,1.684-.65l5.819,2.568a1.262,1.262,0,0,1,.65,1.684A1.249,1.249,0,0,1,117.9,134.971Z" transform="translate(-108.232 -129.018)" fill="#fb8500"/><path d="M112.119,319.683a1.249,1.249,0,0,1-1.167-.767,1.271,1.271,0,0,1,.65-1.684l5.819-2.568a1.285,1.285,0,0,1,1.684.65,1.271,1.271,0,0,1-.65,1.684l-5.819,2.568A1.117,1.117,0,0,1,112.119,319.683Z" transform="translate(-108.268 -282.935)" fill="#fb8500"/></g></g></svg>