<svg xmlns="http://www.w3.org/2000/svg" width="490.721" height="365.449" viewBox="0 0 490.721 365.449">
  <g id="undraw_online_collaboration_re_bkpm" transform="translate(0.5 0.5)">
    <path id="Path_49" data-name="Path 49" d="M625.758,479.345H258.273c-5.223-.007-9.456-5.012-9.462-11.187V200.239c0-4.524,3.105-8.191,6.932-8.2H628.168c3.893.005,7.047,3.735,7.052,8.338V468.158C635.214,474.333,630.981,479.338,625.758,479.345Z" transform="translate(-205.338 -184.716)" fill="#f2f2f2" stroke="#707070" stroke-width="1"/>
    <path id="Path_50" data-name="Path 50" d="M621.241,476.282H278.754c-5.021,0-9.1-4.522-9.1-10.081V232.894c0-4.122,3.027-7.476,6.747-7.476H623.487c3.782,0,6.859,3.409,6.859,7.6V466.2C630.346,471.76,626.261,476.282,621.241,476.282Z" transform="translate(-214.226 -195.463)" fill="#fff" stroke="#707070" stroke-width="1"/>
    <path id="Path_51" data-name="Path 51" d="M634.988,198.153H248.579v-5.7c.008-6.2,4.256-11.216,9.5-11.221H625.492c5.241.005,9.489,5.025,9.5,11.221Z" transform="translate(-205.239 -181.237)" fill="#fb8500" stroke="#707070" stroke-width="1"/>
    <ellipse id="Ellipse_70" data-name="Ellipse 70" cx="2.456" cy="2.904" rx="2.456" ry="2.904" transform="translate(58.142 5.571)" fill="#fff" stroke="#707070" stroke-width="1"/>
    <ellipse id="Ellipse_71" data-name="Ellipse 71" cx="2.456" cy="2.904" rx="2.456" ry="2.904" transform="translate(67.465 5.571)" fill="#fff" stroke="#707070" stroke-width="1"/>
    <ellipse id="Ellipse_72" data-name="Ellipse 72" cx="2.456" cy="2.904" rx="2.456" ry="2.904" transform="translate(76.789 5.571)" fill="#fff" stroke="#707070" stroke-width="1"/>
    <path id="Path_52" data-name="Path 52" d="M470.363,460.3H351.179c-5.54-.007-10.029-5.315-10.035-11.865V278.152c0-4.9,3.362-8.868,7.505-8.874H472.773c4.209.006,7.62,4.039,7.625,9.016V448.437C480.392,454.987,475.9,460.295,470.363,460.3ZM348.649,270.633c-3.51,0-6.354,3.368-6.358,7.518V448.436c.006,5.8,3.982,10.5,8.888,10.509H470.363c4.907-.007,8.883-4.708,8.888-10.509V278.293c0-4.228-2.9-7.655-6.478-7.66Z" transform="translate(-244.723 -209.585)" fill="#ccc" stroke="#707070" stroke-width="1"/>
    <path id="Path_53" data-name="Path 53" d="M367.819,454.134H468.653c5.067,0,9.175-4.857,9.175-10.848V297.82c0-5.991-4.108-10.848-9.175-10.848H367.819c-5.067,0-9.175,4.857-9.175,10.848V443.286C358.644,449.277,362.752,454.134,367.819,454.134Z" transform="translate(-252.188 -215.283)" fill="#e6e6e6" stroke="#707070" stroke-width="1"/>
    <path id="Path_54" data-name="Path 54" d="M466.914,326.56H411.29c-2.059,0-3.727-1.973-3.727-4.407s1.669-4.407,3.727-4.407h55.624c2.059,0,3.727,1.973,3.727,4.407s-1.669,4.407-3.727,4.407Z" transform="translate(-273.054 -225.191)" fill="#fff" stroke="#707070" stroke-width="1"/>
    <path id="Path_55" data-name="Path 55" d="M466.914,467.56H411.29c-2.059,0-3.727-1.973-3.727-4.407s1.669-4.407,3.727-4.407h55.624c2.059,0,3.727,1.973,3.727,4.407S468.973,467.56,466.914,467.56Z" transform="translate(-273.054 -270.592)" fill="#fff" stroke="#707070" stroke-width="1"/>
    <path id="Path_56" data-name="Path 56" d="M466.914,498.56H411.29c-2.059,0-3.727-1.973-3.727-4.407s1.669-4.407,3.727-4.407h55.624c2.059,0,3.727,1.973,3.727,4.407S468.973,498.56,466.914,498.56Z" transform="translate(-273.054 -280.574)" fill="#fff" stroke="#707070" stroke-width="1"/>
    <ellipse id="Ellipse_73" data-name="Ellipse 73" cx="22.364" cy="26.442" rx="22.364" ry="26.442" transform="translate(143.971 113.234)" fill="#fff" stroke="#707070" stroke-width="1"/>
    <path id="Path_57" data-name="Path 57" d="M673.967,351.5l-9.77,2.436a.6.6,0,0,0-.4.371.79.79,0,0,0,.006.6l.91,2.12-44.181,26.515a.741.741,0,0,0-.252.911.535.535,0,0,0,.771.3l44.181-26.515.91,2.121a.594.594,0,0,0,.406.36.514.514,0,0,0,.488-.162l7.43-7.886a.768.768,0,0,0,.128-.811A.551.551,0,0,0,673.967,351.5Z" transform="translate(-363.764 -236.056)" fill="#e6e6e6" stroke="#707070" stroke-width="1"/>
    <path id="Path_58" data-name="Path 58" d="M673.967,432.889l-9.77-2.436a.6.6,0,0,1-.4-.371.79.79,0,0,1,.006-.6l.91-2.12-44.181-26.515a.741.741,0,0,1-.252-.911.535.535,0,0,1,.771-.3l44.181,26.515.91-2.121a.594.594,0,0,1,.406-.36.514.514,0,0,1,.488.162l7.43,7.886a.768.768,0,0,1,.128.811A.551.551,0,0,1,673.967,432.889Z" transform="translate(-363.764 -251.536)" fill="#e6e6e6" stroke="#707070" stroke-width="1"/>
    <path id="Path_59" data-name="Path 59" d="M760.718,359.6c-6.967,0-12.616-6.678-12.616-14.916s5.648-14.916,12.616-14.916,12.616,6.678,12.616,14.916-5.652,14.907-12.616,14.916Zm0-28.476c-6.334,0-11.469,6.071-11.469,13.56s5.135,13.56,11.469,13.56,11.469-6.071,11.469-13.56-5.138-13.552-11.469-13.56Z" transform="translate(-418.313 -229.061)" fill="#e6e6e6" stroke="#707070" stroke-width="1"/>
    <path id="Path_60" data-name="Path 60" d="M760.718,456.6c-6.967,0-12.616-6.678-12.616-14.916s5.648-14.916,12.616-14.916,12.616,6.678,12.616,14.916S767.682,456.586,760.718,456.6Zm0-28.476c-6.334,0-11.469,6.071-11.469,13.56s5.135,13.56,11.469,13.56,11.469-6.071,11.469-13.56S767.049,428.128,760.718,428.119Z" transform="translate(-418.313 -260.294)" fill="#e6e6e6" stroke="#707070" stroke-width="1"/>
    <path id="Path_395" data-name="Path 395" d="M764.268,355.685a1.517,1.517,0,0,1-1.011-.4l-.018-.016-3.808-3.444a2.253,2.253,0,0,1-.313-2.805,1.526,1.526,0,0,1,2.372-.371l2.466,2.236,5.828-8.99a1.525,1.525,0,0,1,2.371-.37h0l-.036.059.037-.059a2.255,2.255,0,0,1,.313,2.8L765.616,354.9a1.616,1.616,0,0,1-1.346.78Z" transform="translate(-422.863 -232.716)" fill="#e6e6e6" stroke="#707070" stroke-width="1"/>
    <path id="Path_61" data-name="Path 61" d="M760.369,452.02a1.152,1.152,0,0,1,0-1.438l9.732-11.506a.77.77,0,0,1,1.216,0,1.152,1.152,0,0,1,0,1.438l-9.732,11.506a.77.77,0,0,1-1.217,0Z" transform="translate(-423.438 -264.162)" fill="#e6e6e6" stroke="#707070" stroke-width="1"/>
    <path id="Path_62" data-name="Path 62" d="M770.317,452.02a1.152,1.152,0,0,0,0-1.438l-9.732-11.506a.77.77,0,0,0-1.216,0,1.152,1.152,0,0,0,0,1.438L769.1,452.02a.77.77,0,0,0,1.216,0Z" transform="translate(-423.012 -264.162)" fill="#e6e6e6" stroke="#707070" stroke-width="1"/>
    <path id="Path_63" data-name="Path 63" d="M797.461,389.373a.667.667,0,0,1-.111-.01.747.747,0,0,1-.5-.353l-4.688-7.432a.178.178,0,0,0-.174-.089.2.2,0,0,0-.152.134l-2.4,6.649a.76.76,0,0,1-.759.545.81.81,0,0,1-.681-.673l-4.8-21.951a1,1,0,0,1,.282-.948.667.667,0,0,1,.849-.049l16.424,11.7a.974.974,0,0,1,.352.963.824.824,0,0,1-.658.7l-6.074.826a.2.2,0,0,0-.152.133.258.258,0,0,0,.022.222l4.688,7.432a1.015,1.015,0,0,1-.156,1.262l-.858.757a.684.684,0,0,1-.454.179Z" transform="translate(-433.272 -240.428)" fill="#fb8500" stroke="#707070" stroke-width="1"/>
    <path id="Path_64" data-name="Path 64" d="M834.98,418.323H814.336c-3.167,0-5.734-3.036-5.734-6.78s2.567-6.78,5.734-6.78H834.98c3.167,0,5.734,3.036,5.734,6.78S838.147,418.323,834.98,418.323Z" transform="translate(-444.12 -253.21)" fill="#fb8500" stroke="#707070" stroke-width="1"/>
    <path id="Path_65" data-name="Path 65" d="M415.939,344.194l-.858-.757a1.015,1.015,0,0,1-.156-1.262l4.688-7.432a.258.258,0,0,0,.022-.222.2.2,0,0,0-.152-.133l-6.074-.826a.824.824,0,0,1-.658-.7.974.974,0,0,1,.352-.963l16.424-11.7a.667.667,0,0,1,.849.049,1,1,0,0,1,.283.948l-4.8,21.951a.81.81,0,0,1-.681.673.76.76,0,0,1-.759-.545l-2.4-6.649a.2.2,0,0,0-.151-.134.178.178,0,0,0-.174.088l-4.688,7.432a.747.747,0,0,1-.5.353.666.666,0,0,1-.111.01.684.684,0,0,1-.454-.179Z" transform="translate(-275.26 -225.938)" fill="#3f3d56" stroke="#707070" stroke-width="1"/>
    <path id="Path_66" data-name="Path 66" d="M362.6,366.543c0-3.743,2.569-6.776,5.734-6.78H388.98c3.167,0,5.734,3.036,5.734,6.78s-2.567,6.78-5.734,6.78H368.336c-3.166,0-5.731-3.037-5.734-6.78Z" transform="translate(-253.876 -238.72)" fill="#3f3d56" stroke="#707070" stroke-width="1"/>
    <path id="Path_67" data-name="Path 67" d="M889.1,535.144a7.482,7.482,0,0,0,1.864-5.332,7.264,7.264,0,0,0-2.261-5.112l6.411-23.012-10.278,3.3-4.512,21.348a7.755,7.755,0,0,0,1.077,9.016,5.151,5.151,0,0,0,7.7-.2Z" transform="translate(-474.302 -284.419)" fill="#a0616a" stroke="#707070" stroke-width="1"/>
    <path id="Path_68" data-name="Path 68" d="M999.377,533.145a7.482,7.482,0,0,1-1.864-5.332,7.264,7.264,0,0,1,2.261-5.112l-6.411-23.012,10.277,3.3,4.512,21.348a7.755,7.755,0,0,1-1.077,9.015A5.151,5.151,0,0,1,999.377,533.145Z" transform="translate(-522.931 -283.775)" fill="#a0616a" stroke="#707070" stroke-width="1"/>
    <ellipse id="Ellipse_74" data-name="Ellipse 74" cx="14.084" cy="16.653" rx="14.084" ry="16.653" transform="translate(432.24 101.11)" fill="#a0616a" stroke="#707070" stroke-width="1"/>
    <path id="Path_69" data-name="Path 69" d="M747.421,510.133h-7.03l-3.345-32.062h10.376Z" transform="translate(-314.391 -153.933)" fill="#a0616a" stroke="#707070" stroke-width="1"/>
    <path id="Path_70" data-name="Path 70" d="M914.4,713.364H891.734v-.339c0-5.762,3.95-10.432,8.823-10.432H914.4Z" transform="translate(-479.581 -349.108)" fill="#2f2e41" stroke="#707070" stroke-width="1"/>
    <path id="Path_71" data-name="Path 71" d="M789.421,510.133h-7.03l-3.345-32.062h10.376Z" transform="translate(-332.307 -153.933)" fill="#a0616a" stroke="#707070" stroke-width="1"/>
    <path id="Path_72" data-name="Path 72" d="M956.4,713.364H933.734v-.339c0-5.762,3.95-10.432,8.823-10.432H956.4Z" transform="translate(-497.496 -349.108)" fill="#2f2e41" stroke="#707070" stroke-width="1"/>
    <path id="Path_73" data-name="Path 73" d="M919.646,639.827l-8.258-.027a2.289,2.289,0,0,1-1.984-.705,3.3,3.3,0,0,1-.905-2.251l.951-108.059,38.109-.45-2.211,107.712a2.815,2.815,0,0,1-2.58,2.978h-8.515a2.816,2.816,0,0,1-2.579-2.937l-2.061-64.648a.355.355,0,0,0-.082-.235.251.251,0,0,0-.2-.092.306.306,0,0,0-.29.316l-7.171,65.6a2.89,2.89,0,0,1-2.224,2.8Z" transform="translate(-486.732 -292.999)" fill="#2f2e41" stroke="#707070" stroke-width="1"/>
    <path id="Path_74" data-name="Path 74" d="M925.231,490.438a30.737,30.737,0,0,1-16.953-4.667,3.189,3.189,0,0,1-1.355-2.635l-.751-49.317-1.057-10.553c-1.3-12.834,4.035-25.337,13.532-31.737l.488-.329,1.375-3.795a1.429,1.429,0,0,1,1.359-1.026L940.36,387a1.491,1.491,0,0,1,1.319,1.159l.859,3.046c9.714,6.593,14.989,19.58,13.269,32.666l-7.579,59.3a2.994,2.994,0,0,1-1.628,2.394A55.145,55.145,0,0,1,925.231,490.438Z" transform="translate(-485.206 -247.29)" fill="#3f3d56" stroke="#707070" stroke-width="1"/>
    <path id="Path_75" data-name="Path 75" d="M989.539,489.552a1.467,1.467,0,0,1-1.34-1.084l-9.389-28.73-7.675-44.76a9.629,9.629,0,0,1,3.053-9h0a6.507,6.507,0,0,1,7.163-.888,8.707,8.707,0,0,1,4.464,6.683l2.149,15.242,10.655,58.348a1.73,1.73,0,0,1-1.073,2.007l-7.68,2.137a1.207,1.207,0,0,1-.328.045Z" transform="translate(-513.386 -253.092)" fill="#3f3d56" stroke="#707070" stroke-width="1"/>
    <path id="Path_76" data-name="Path 76" d="M891.083,489.552a1.21,1.21,0,0,1-.326-.045l-7.679-2.136A1.73,1.73,0,0,1,882,485.364L892.662,427l2.146-15.226a8.707,8.707,0,0,1,4.464-6.683,6.507,6.507,0,0,1,7.163.888h0a9.629,9.629,0,0,1,3.053,9l-7.664,44.7-9.4,28.786A1.467,1.467,0,0,1,891.083,489.552Z" transform="translate(-475.417 -253.092)" fill="#3f3d56" stroke="#707070" stroke-width="1"/>
    <path id="Path_77" data-name="Path 77" d="M949.3,361c-1.3.887-6.458,1.475-6.826-.25l-.008-.038a15.33,15.33,0,0,1,.03-3.88,5.542,5.542,0,0,0-.781-3.674c-1.392-1.777-3.869-.835-5.883-1.284-2.44-.644-4.095-3.331-3.865-6.274.029-.269.074-.539.124-.809a5.142,5.142,0,0,0-.833-3.908,3.576,3.576,0,0,0-3.139-1.572c-2.035.138-4.231.866-5.914-.915-1.3-1.378-1.619-4.965-1.047-6.917.961-3.28,7.119-5,9.807-5.942a20.365,20.365,0,0,1,19.744,3.83,12.015,12.015,0,0,1,4.008,5.5c.724,2.3.375,5.207-1.257,6.727a14.1,14.1,0,0,1,2.435,12.073C955.092,356.736,951.245,359.68,949.3,361Z" transform="translate(-492.017 -227.352)" fill="#2f2e41" stroke="#707070" stroke-width="1"/>
    <path id="Path_78" data-name="Path 78" d="M270.385,501.439a5.692,5.692,0,0,1-4.192-2.952,7.871,7.871,0,0,1-.778-5.7l-16.787-13.9,9.9-4.635,14.423,13.906c2.767,1.168,4.357,4.6,3.7,7.984s-3.348,5.657-6.269,5.288Z" transform="translate(-205.26 -275.588)" fill="#ffb8b8" stroke="#707070" stroke-width="1"/>
    <path id="Path_79" data-name="Path 79" d="M254.614,471.951l-15.2-10.425a14.961,14.961,0,0,1-6.1-9.653,16.5,16.5,0,0,1,1.833-11.178l12.585-21.948c1.846-3.221,5.481-4.215,8.336-2.28s3.966,6.146,2.548,9.657l-9.827,24.344,9.955,10.364a3.4,3.4,0,0,1,.817,2.933l-1.127,6.188a2.961,2.961,0,0,1-1.478,2.148,2.212,2.212,0,0,1-2.339-.15Z" transform="translate(-198.605 -256.661)" fill="#3f3d56" stroke="#707070" stroke-width="1"/>
    <path id="Path_80" data-name="Path 80" d="M372.249,422.576a6.511,6.511,0,0,1-3.305,4.244,4.974,4.974,0,0,1-4.874-.272l-14.953,16.566-1.8-12.409,14.476-13.829c1.536-2.961,4.7-4.1,7.37-2.642s3.994,5.038,3.087,8.341Z" transform="translate(-247.355 -256.057)" fill="#ffb8b8" stroke="#707070" stroke-width="1"/>
    <ellipse id="Ellipse_75" data-name="Ellipse 75" cx="14.084" cy="16.653" rx="14.084" ry="16.653" transform="translate(49.563 111.467)" fill="#ffb8b8" stroke="#707070" stroke-width="1"/>
    <path id="Path_81" data-name="Path 81" d="M177.555,508.706l6.739-2.37-4.527-31.858-9.945,3.5Z" transform="translate(-72.439 -152.776)" fill="#ffb8b8" stroke="#707070" stroke-width="1"/>
    <path id="Path_82" data-name="Path 82" d="M352.169,700.829l13.27-4.668h0c4.671-1.643,9.583,1.5,10.973,7.024l.082.325-21.727,7.643Z" transform="translate(-249.426 -346.896)" fill="#2f2e41" stroke="#707070" stroke-width="1"/>
    <path id="Path_83" data-name="Path 83" d="M54.57,509.133H61.6l3.345-32.062H58.01Z" transform="translate(-23.277 -153.611)" fill="#ffb8b8" stroke="#707070" stroke-width="1"/>
    <path id="Path_84" data-name="Path 84" d="M224.442,701.594h13.846c4.873,0,8.823,4.671,8.823,10.432v.339H224.442Z" transform="translate(-194.943 -348.786)" fill="#2f2e41" stroke="#707070" stroke-width="1"/>
    <path id="Path_85" data-name="Path 85" d="M294.519,623.259l-26.37-89.719a.87.87,0,0,0-.793-.683.832.832,0,0,0-.818.639l-30.386,89.815a2.586,2.586,0,0,1-2.521,1.914l-7.931-.455a2.5,2.5,0,0,1-1.949-1.233,3.5,3.5,0,0,1-.427-2.565l28.743-133.937,28.837-2.782.188.321c.156.266,15.585,27.122,15.576,73.49l9.887,63.642a3.465,3.465,0,0,1-.555,2.5,2.444,2.444,0,0,1-1.983,1.1h-7.059A2.653,2.653,0,0,1,294.519,623.259Z" transform="translate(-194.432 -278.805)" fill="#2f2e41" stroke="#707070" stroke-width="1"/>
    <path id="Path_86" data-name="Path 86" d="M254.834,430.132a24.322,24.322,0,0,1,3.071-20.455c3.878-5.686,9.981-8.574,16.106-7.621l.712.115h0c7.874,1.257,14.11,8.49,15.323,17.774l5.385,40.5-30.7,2.74-.22.019Z" transform="translate(-207.479 -252.28)" fill="#3f3d56" stroke="#707070" stroke-width="1"/>
    <path id="Path_87" data-name="Path 87" d="M315.136,450.034a11.517,11.517,0,0,1-8.8-5.01l-14.523-19.906a8.564,8.564,0,0,1-1.643-5.445,7.865,7.865,0,0,1,2.351-5.393,5.57,5.57,0,0,1,8.023.16l17.32,17.551,10.656-8.764a2.247,2.247,0,0,1,2.639-.217l5.1,3.052a3.064,3.064,0,0,1,1.383,2.246,3.412,3.412,0,0,1-.73,2.641l-12.681,14.89a11.276,11.276,0,0,1-8.608,4.2Q315.381,450.045,315.136,450.034Z" transform="translate(-222.978 -255.751)" fill="#3f3d56" stroke="#707070" stroke-width="1"/>
    <path id="Path_88" data-name="Path 88" d="M277.343,354.481a15.983,15.983,0,0,0,5.479,1.425,5.6,5.6,0,0,0,4.929-2.446,7.059,7.059,0,0,0,.567-5.044,11.646,11.646,0,0,0-5.592-7.768,10.228,10.228,0,0,0-9.128-.347c-1.06-3.809-5.051-5.882-8.745-6-7.546-.239-14.294,5.844-17.573,13.16s-3.758,15.678-3.962,23.8a13.541,13.541,0,0,0,.723,5.832c1.181,2.662,3.865,4.1,6.4,5.232a106.08,106.08,0,0,0,20.453,6.8,9.563,9.563,0,0,1-2.29-11.743c1.038-1.842,2.742-3.376,3.017-5.509.331-2.558-1.515-4.8-2.2-7.271a8.3,8.3,0,0,1,1.783-7.628,6.97,6.97,0,0,1,7.075-1.984" transform="translate(-202.986 -230.52)" fill="#2f2e41" stroke="#707070" stroke-width="1"/>
    <path id="Path_89" data-name="Path 89" d="M315.788,718.119H173.573a.688.688,0,0,1,0-1.356H315.788a.688.688,0,0,1,0,1.356Z" transform="translate(-173 -353.67)" fill="#ccc" stroke="#707070" stroke-width="1"/>
    <path id="Path_90" data-name="Path 90" d="M950.5,718.119H849.573a.688.688,0,0,1,0-1.356H950.5a.688.688,0,0,1,0,1.356Z" transform="translate(-461.352 -353.67)" fill="#ccc" stroke="#707070" stroke-width="1"/>
  </g>
</svg>
