<svg xmlns="http://www.w3.org/2000/svg" width="761" height="626" viewBox="0 0 761 626"><defs><style>.a{fill:#ffbe74;}.b{fill:#fb8500;}.c{fill:#f2f2f2;}.d{fill:#ccc;}.e{fill:#3f3d56;}.f{fill:#2f2e41;}.g{fill:#e6e6e6;}.h{fill:#a0616a;}.i{opacity:0.2;}</style></defs><g transform="translate(-798 -281)"><g transform="translate(978 590.873)"><circle class="a" cx="4.5" cy="4.5" r="4.5" transform="translate(0 0.127)"/><circle class="a" cx="4.5" cy="4.5" r="4.5" transform="translate(0 44.127)"/><ellipse class="a" cx="4.5" cy="4" rx="4.5" ry="4" transform="translate(0 88.127)"/><circle class="a" cx="4.5" cy="4.5" r="4.5" transform="translate(0 131.127)"/><circle class="a" cx="4.5" cy="4.5" r="4.5" transform="translate(0 175.127)"/><circle class="a" cx="4.5" cy="4.5" r="4.5" transform="translate(0 219.127)"/><ellipse class="a" cx="4.5" cy="5" rx="4.5" ry="5" transform="translate(0 262.127)"/><ellipse class="a" cx="4.5" cy="5" rx="4.5" ry="5" transform="translate(0 305.127)"/><ellipse class="a" cx="4" cy="4.5" rx="4" ry="4.5" transform="translate(43 0.127)"/><ellipse class="a" cx="4" cy="4.5" rx="4" ry="4.5" transform="translate(43 44.127)"/><circle class="a" cx="4" cy="4" r="4" transform="translate(43 88.127)"/><ellipse class="a" cx="4" cy="4.5" rx="4" ry="4.5" transform="translate(43 131.127)"/><ellipse class="a" cx="4" cy="4.5" rx="4" ry="4.5" transform="translate(43 175.127)"/><ellipse class="a" cx="4" cy="4.5" rx="4" ry="4.5" transform="translate(43 219.127)"/><ellipse class="a" cx="4" cy="5" rx="4" ry="5" transform="translate(43 262.127)"/><ellipse class="a" cx="4" cy="5" rx="4" ry="5" transform="translate(43 305.127)"/><circle class="a" cx="4.5" cy="4.5" r="4.5" transform="translate(85 0.127)"/><circle class="a" cx="4.5" cy="4.5" r="4.5" transform="translate(85 44.127)"/><ellipse class="a" cx="4.5" cy="4" rx="4.5" ry="4" transform="translate(85 88.127)"/><circle class="a" cx="4.5" cy="4.5" r="4.5" transform="translate(85 131.127)"/><circle class="a" cx="4.5" cy="4.5" r="4.5" transform="translate(85 175.127)"/><circle class="a" cx="4.5" cy="4.5" r="4.5" transform="translate(85 219.127)"/><ellipse class="a" cx="4.5" cy="5" rx="4.5" ry="5" transform="translate(85 262.127)"/><ellipse class="a" cx="4.5" cy="5" rx="4.5" ry="5" transform="translate(85 305.127)"/><ellipse class="a" cx="4.5" cy="5" rx="4.5" ry="5" transform="translate(128 1.127)"/><circle class="a" cx="4.5" cy="4.5" r="4.5" transform="translate(128 45.127)"/><ellipse class="a" cx="4.5" cy="5" rx="4.5" ry="5" transform="translate(128 88.127)"/><circle class="a" cx="4.5" cy="4.5" r="4.5" transform="translate(128 132.127)"/><circle class="a" cx="4.5" cy="4.5" r="4.5" transform="translate(128 176.127)"/><ellipse class="a" cx="4.5" cy="5" rx="4.5" ry="5" transform="translate(128 219.127)"/><ellipse class="a" cx="4.5" cy="4" rx="4.5" ry="4" transform="translate(128 264.127)"/><circle class="a" cx="4.5" cy="4.5" r="4.5" transform="translate(128 307.127)"/><ellipse class="a" cx="4.5" cy="5" rx="4.5" ry="5" transform="translate(170 1.127)"/><circle class="a" cx="4.5" cy="4.5" r="4.5" transform="translate(170 45.127)"/><ellipse class="a" cx="4.5" cy="5" rx="4.5" ry="5" transform="translate(170 88.127)"/><circle class="a" cx="4.5" cy="4.5" r="4.5" transform="translate(170 132.127)"/><circle class="a" cx="4.5" cy="4.5" r="4.5" transform="translate(170 176.127)"/><ellipse class="a" cx="4.5" cy="5" rx="4.5" ry="5" transform="translate(170 219.127)"/><ellipse class="a" cx="4.5" cy="4" rx="4.5" ry="4" transform="translate(170 264.127)"/><circle class="a" cx="4.5" cy="4.5" r="4.5" transform="translate(170 307.127)"/><ellipse class="a" cx="4.5" cy="5" rx="4.5" ry="5" transform="translate(213 1.127)"/><circle class="a" cx="4.5" cy="4.5" r="4.5" transform="translate(213 45.127)"/><ellipse class="a" cx="4.5" cy="5" rx="4.5" ry="5" transform="translate(213 88.127)"/><circle class="a" cx="4.5" cy="4.5" r="4.5" transform="translate(213 132.127)"/><circle class="a" cx="4.5" cy="4.5" r="4.5" transform="translate(213 176.127)"/><ellipse class="a" cx="4.5" cy="5" rx="4.5" ry="5" transform="translate(213 219.127)"/><ellipse class="a" cx="4.5" cy="4" rx="4.5" ry="4" transform="translate(213 264.127)"/><circle class="a" cx="4.5" cy="4.5" r="4.5" transform="translate(213 307.127)"/><ellipse class="a" cx="4" cy="5" rx="4" ry="5" transform="translate(256 1.127)"/><ellipse class="a" cx="4" cy="4.5" rx="4" ry="4.5" transform="translate(256 45.127)"/><ellipse class="a" cx="4" cy="5" rx="4" ry="5" transform="translate(256 88.127)"/><ellipse class="a" cx="4" cy="4.5" rx="4" ry="4.5" transform="translate(256 132.127)"/><ellipse class="a" cx="4" cy="4.5" rx="4" ry="4.5" transform="translate(256 176.127)"/><ellipse class="a" cx="4" cy="5" rx="4" ry="5" transform="translate(256 219.127)"/><circle class="a" cx="4" cy="4" r="4" transform="translate(256 264.127)"/><ellipse class="a" cx="4" cy="4.5" rx="4" ry="4.5" transform="translate(256 307.127)"/><ellipse class="a" cx="4.5" cy="5" rx="4.5" ry="5" transform="translate(298 1.127)"/><circle class="a" cx="4.5" cy="4.5" r="4.5" transform="translate(298 45.127)"/><ellipse class="a" cx="4.5" cy="5" rx="4.5" ry="5" transform="translate(298 88.127)"/><circle class="a" cx="4.5" cy="4.5" r="4.5" transform="translate(298 132.127)"/><circle class="a" cx="4.5" cy="4.5" r="4.5" transform="translate(298 176.127)"/><ellipse class="a" cx="4.5" cy="5" rx="4.5" ry="5" transform="translate(298 219.127)"/><ellipse class="a" cx="4.5" cy="4" rx="4.5" ry="4" transform="translate(298 264.127)"/><circle class="a" cx="4.5" cy="4.5" r="4.5" transform="translate(298 307.127)"/></g><g transform="translate(1400.516 327.941)"><ellipse class="a" cx="2" cy="2.5" rx="2" ry="2.5" transform="translate(0.484 0.059)"/><circle class="a" cx="2" cy="2" r="2" transform="translate(0.484 23.059)"/><circle class="a" cx="2" cy="2" r="2" transform="translate(0.484 45.059)"/><circle class="a" cx="2" cy="2" r="2" transform="translate(0.484 68.059)"/><circle class="a" cx="2" cy="2" r="2" transform="translate(0.484 90.059)"/><ellipse class="a" cx="2" cy="2.5" rx="2" ry="2.5" transform="translate(0.484 112.059)"/><ellipse class="a" cx="2" cy="3" rx="2" ry="3" transform="translate(0.484 134.059)"/><ellipse class="a" cx="2" cy="2.5" rx="2" ry="2.5" transform="translate(0.484 157.059)"/><ellipse class="a" cx="2" cy="2.5" rx="2" ry="2.5" transform="translate(22.484 0.059)"/><circle class="a" cx="2" cy="2" r="2" transform="translate(22.484 23.059)"/><circle class="a" cx="2" cy="2" r="2" transform="translate(22.484 45.059)"/><circle class="a" cx="2" cy="2" r="2" transform="translate(22.484 68.059)"/><circle class="a" cx="2" cy="2" r="2" transform="translate(22.484 90.059)"/><ellipse class="a" cx="2" cy="2.5" rx="2" ry="2.5" transform="translate(22.484 112.059)"/><ellipse class="a" cx="2" cy="3" rx="2" ry="3" transform="translate(22.484 134.059)"/><ellipse class="a" cx="2" cy="2.5" rx="2" ry="2.5" transform="translate(22.484 157.059)"/><ellipse class="a" cx="2" cy="2.5" rx="2" ry="2.5" transform="translate(44.484 0.059)"/><circle class="a" cx="2" cy="2" r="2" transform="translate(44.484 23.059)"/><circle class="a" cx="2" cy="2" r="2" transform="translate(44.484 45.059)"/><circle class="a" cx="2" cy="2" r="2" transform="translate(44.484 68.059)"/><circle class="a" cx="2" cy="2" r="2" transform="translate(44.484 90.059)"/><ellipse class="a" cx="2" cy="2.5" rx="2" ry="2.5" transform="translate(44.484 112.059)"/><ellipse class="a" cx="2" cy="3" rx="2" ry="3" transform="translate(44.484 134.059)"/><ellipse class="a" cx="2" cy="2.5" rx="2" ry="2.5" transform="translate(44.484 157.059)"/><circle class="a" cx="2" cy="2" r="2" transform="translate(66.484 1.059)"/><circle class="a" cx="2" cy="2" r="2" transform="translate(66.484 23.059)"/><ellipse class="a" cx="2" cy="2.5" rx="2" ry="2.5" transform="translate(66.484 45.059)"/><ellipse class="a" cx="2" cy="2.5" rx="2" ry="2.5" transform="translate(66.484 68.059)"/><ellipse class="a" cx="2" cy="2.5" rx="2" ry="2.5" transform="translate(66.484 90.059)"/><ellipse class="a" cx="2" cy="2.5" rx="2" ry="2.5" transform="translate(66.484 113.059)"/><ellipse class="a" cx="2" cy="2.5" rx="2" ry="2.5" transform="translate(66.484 135.059)"/><ellipse class="a" cx="2" cy="2.5" rx="2" ry="2.5" transform="translate(66.484 158.059)"/><ellipse class="a" cx="2.5" cy="2" rx="2.5" ry="2" transform="translate(87.484 1.059)"/><ellipse class="a" cx="2.5" cy="2" rx="2.5" ry="2" transform="translate(87.484 23.059)"/><circle class="a" cx="2.5" cy="2.5" r="2.5" transform="translate(87.484 45.059)"/><circle class="a" cx="2.5" cy="2.5" r="2.5" transform="translate(87.484 68.059)"/><circle class="a" cx="2.5" cy="2.5" r="2.5" transform="translate(87.484 90.059)"/><circle class="a" cx="2.5" cy="2.5" r="2.5" transform="translate(87.484 113.059)"/><circle class="a" cx="2.5" cy="2.5" r="2.5" transform="translate(87.484 135.059)"/><circle class="a" cx="2.5" cy="2.5" r="2.5" transform="translate(87.484 158.059)"/><ellipse class="a" cx="2.5" cy="2" rx="2.5" ry="2" transform="translate(109.484 1.059)"/><ellipse class="a" cx="2.5" cy="2" rx="2.5" ry="2" transform="translate(109.484 23.059)"/><circle class="a" cx="2.5" cy="2.5" r="2.5" transform="translate(109.484 45.059)"/><circle class="a" cx="2.5" cy="2.5" r="2.5" transform="translate(109.484 68.059)"/><circle class="a" cx="2.5" cy="2.5" r="2.5" transform="translate(109.484 90.059)"/><circle class="a" cx="2.5" cy="2.5" r="2.5" transform="translate(109.484 113.059)"/><circle class="a" cx="2.5" cy="2.5" r="2.5" transform="translate(109.484 135.059)"/><circle class="a" cx="2.5" cy="2.5" r="2.5" transform="translate(109.484 158.059)"/><circle class="a" cx="2" cy="2" r="2" transform="translate(132.484 1.059)"/><circle class="a" cx="2" cy="2" r="2" transform="translate(132.484 23.059)"/><ellipse class="a" cx="2" cy="2.5" rx="2" ry="2.5" transform="translate(132.484 45.059)"/><ellipse class="a" cx="2" cy="2.5" rx="2" ry="2.5" transform="translate(132.484 68.059)"/><ellipse class="a" cx="2" cy="2.5" rx="2" ry="2.5" transform="translate(132.484 90.059)"/><ellipse class="a" cx="2" cy="2.5" rx="2" ry="2.5" transform="translate(132.484 113.059)"/><ellipse class="a" cx="2" cy="2.5" rx="2" ry="2.5" transform="translate(132.484 135.059)"/><ellipse class="a" cx="2" cy="2.5" rx="2" ry="2.5" transform="translate(132.484 158.059)"/><ellipse class="a" cx="2.5" cy="2" rx="2.5" ry="2" transform="translate(153.484 1.059)"/><ellipse class="a" cx="2.5" cy="2" rx="2.5" ry="2" transform="translate(153.484 23.059)"/><circle class="a" cx="2.5" cy="2.5" r="2.5" transform="translate(153.484 45.059)"/><circle class="a" cx="2.5" cy="2.5" r="2.5" transform="translate(153.484 68.059)"/><circle class="a" cx="2.5" cy="2.5" r="2.5" transform="translate(153.484 90.059)"/><circle class="a" cx="2.5" cy="2.5" r="2.5" transform="translate(153.484 113.059)"/><circle class="a" cx="2.5" cy="2.5" r="2.5" transform="translate(153.484 135.059)"/><circle class="a" cx="2.5" cy="2.5" r="2.5" transform="translate(153.484 158.059)"/></g><circle class="b" cx="157.5" cy="157.5" r="157.5" transform="translate(948 431)"/><g transform="translate(1021.315 355.678)"><path class="c" d="M839.034,425.017a262.977,262.977,0,0,1-62.2,170.232c-1.462,1.736-2.951,3.444-4.467,5.143a265.473,265.473,0,0,1-61.656,51.15q-7.92,4.755-16.188,8.962c-.557.283-1.124.566-1.681.841-.667.338-1.343.667-2.019,1a261.431,261.431,0,0,1-43.412,16.645q-2.33.658-4.668,1.279a263.633,263.633,0,0,1-60.148,8.67c-1.06.027-2.1.046-3.106.064-.356.009-.7.018-1.051.018-1.142.009-2.275.018-3.417.018a264.267,264.267,0,0,1-63.528-7.7q-3.124-.767-6.221-1.617a260.815,260.815,0,0,1-31.947-10.99q-8.222-3.426-16.152-7.391c-1.2-.6-2.393-1.206-3.572-1.827-.5-.247-1-.512-1.489-.767a265.347,265.347,0,0,1-74.592-58.522c-1.462-1.635-2.9-3.3-4.312-4.97a264.04,264.04,0,0,1,45.3-382.87c1.5-1.105,3.006-2.2,4.531-3.27l.9-.63a261.964,261.964,0,0,1,88.706-40.059c1.809-.448,3.618-.868,5.445-1.261a266.573,266.573,0,0,1,104.766-1.836c1.818.338,3.636.685,5.445,1.06A262.446,262.446,0,0,1,717.011,202.4c.6.384,1.206.767,1.809,1.169,1.215.786,2.43,1.59,3.627,2.4A263.73,263.73,0,0,1,839.034,425.017Z" transform="translate(-310.999 -161)"/><path class="d" d="M518.929,563.247l-84.385,7.491-.9.082V210.753l.9-.63a263.392,263.392,0,0,1,56.649-30.093l4.312,59.472.393,5.445,4.266,58.979,1.315,18.143,17.294,239.077Z" transform="translate(-321.6 -162.645)"/><path class="d" d="M747.531,203.773c.6.384,1.206.767,1.809,1.169v365.6l-1.809-.164-83.471-7.409.155-2.1L681.509,321.8l1.316-18.143,4.266-58.979.393-5.445,4.522-62.368a262.816,262.816,0,0,1,55.526,26.913Z" transform="translate(-341.519 -162.371)"/><path class="d" d="M727.183,206.32V578.082c0,7.135-4.915,12.936-10.963,12.936H445.078c-5.006,0-9.254-3.983-10.542-9.419a14.715,14.715,0,0,1-.42-3.517V212.4l-.9.63c-1.526,1.069-3.033,2.165-4.531,3.271V578.082a20.938,20.938,0,0,0,5.646,14.617,15.585,15.585,0,0,0,7.107,4.257,13.806,13.806,0,0,0,3.645.484H716.221a13.925,13.925,0,0,0,3.654-.484c7.29-1.964,12.744-9.675,12.744-18.874V209.892c-1.2-.813-2.412-1.617-3.627-2.4C728.389,207.087,727.786,206.7,727.183,206.32Z" transform="translate(-321.171 -164.918)"/><rect class="d" width="298.505" height="5.444" transform="translate(110.226 76.861)"/><path class="d" d="M531.73,169c1.809-.448,3.618-.868,5.445-1.261V315.562H531.73Z" transform="translate(-330.08 -161.583)"/><path class="d" d="M652.37,165.73c1.818.338,3.636.685,5.445,1.06v148.6H652.37Z" transform="translate(-340.509 -161.409)"/><path class="d" d="M759.5,597.21H402.021a24.5,24.5,0,1,0,0,49H759.5a24.45,24.45,0,0,0,18.384-8.326,24.771,24.771,0,0,0,2.755-3.815,23.337,23.337,0,0,0,1.6-3.252A24.486,24.486,0,0,0,759.5,597.21Z" transform="translate(-316.749 -198.709)"/><rect class="d" width="296.691" height="18.146" transform="translate(112.041 141.28)"/><path class="d" d="M281.1,148.69h5.444a9.98,9.98,0,0,1,9.98,9.98h-25.4a9.98,9.98,0,0,1,9.98-9.98Z" transform="translate(-23.436 -12.854)"/><path class="e" d="M782.716,636.34a264.029,264.029,0,0,1-25.689,26.447H404.779A264.029,264.029,0,0,1,379.09,636.34Z" transform="translate(-316.885 -202.091)"/><path class="f" d="M626.369,536.07H567.061a2.9,2.9,0,0,0-.941.146,3.15,3.15,0,0,0-2.22,3.015v93.694h65.639V539.231a3.164,3.164,0,0,0-3.17-3.161ZM603.923,582.3a6.879,6.879,0,0,1-1.425,4.2,7,7,0,0,1-12.589-4.2V571.424a7.007,7.007,0,1,1,14.014,0Z" transform="translate(-332.861 -193.423)"/><path class="e" d="M563.68,638.81v9.035a1.772,1.772,0,0,0,1.763,1.772h62.514a1.778,1.778,0,0,0,1.763-1.772V638.81Z" transform="translate(-332.842 -202.305)"/><path class="e" d="M715.013,376.02H461.5a8.232,8.232,0,0,0-8.222,8.213V555.3a8.228,8.228,0,0,0,8.222,8.222H715.013a8.228,8.228,0,0,0,8.222-8.222V384.233A8.233,8.233,0,0,0,715.013,376.02Z" transform="translate(-323.298 -179.588)"/><path class="b" d="M713.456,382.52H464.174a4.4,4.4,0,0,0-4.394,4.4V553.757a4.4,4.4,0,0,0,4.394,4.394H713.456a4.4,4.4,0,0,0,4.394-4.394V386.923a4.4,4.4,0,0,0-4.394-4.4Z" transform="translate(-323.86 -180.15)"/><path class="f" d="M672.7,649.24l-2.3-10.935a2.734,2.734,0,0,0-1.7-1.982,2.647,2.647,0,0,0-.968-.183H524.014a2.646,2.646,0,0,0-.968.183,2.734,2.734,0,0,0-1.7,1.982l-2.3,10.935a2.729,2.729,0,0,0,2.668,3.289H670.018a2.694,2.694,0,0,0,2.119-1.014A2.727,2.727,0,0,0,672.7,649.24Z" transform="translate(-328.978 -202.074)"/><rect class="e" width="4.568" height="2.741" rx="0.488" transform="translate(196.089 436.035)"/><rect class="e" width="4.568" height="2.741" rx="0.488" transform="translate(205.225 436.035)"/><rect class="e" width="4.568" height="2.741" rx="0.488" transform="translate(214.36 436.035)"/><rect class="e" width="4.568" height="2.741" rx="0.488" transform="translate(223.496 436.035)"/><rect class="e" width="4.568" height="2.741" rx="0.488" transform="translate(232.631 436.035)"/><rect class="e" width="4.568" height="2.741" rx="0.488" transform="translate(241.767 436.035)"/><rect class="e" width="4.568" height="2.741" rx="0.488" transform="translate(250.902 436.035)"/><rect class="e" width="4.568" height="2.741" rx="0.488" transform="translate(260.038 436.035)"/><rect class="e" width="4.568" height="2.741" rx="0.488" transform="translate(269.173 436.035)"/><rect class="e" width="4.568" height="2.741" rx="0.488" transform="translate(278.309 436.035)"/><rect class="e" width="4.568" height="2.741" rx="0.488" transform="translate(287.445 436.035)"/><rect class="e" width="4.568" height="2.741" rx="0.488" transform="translate(296.58 436.035)"/><rect class="e" width="4.568" height="2.741" rx="0.488" transform="translate(305.716 436.035)"/><rect class="e" width="4.568" height="2.741" rx="0.488" transform="translate(314.851 436.035)"/><rect class="e" width="4.568" height="2.741" rx="0.488" transform="translate(323.987 436.035)"/><rect class="e" width="4.568" height="2.741" rx="0.488" transform="translate(333.122 436.035)"/><rect class="e" width="4.568" height="2.741" rx="0.488" transform="translate(195.981 440.603)"/><rect class="e" width="4.568" height="2.741" rx="0.488" transform="translate(205.117 440.603)"/><rect class="e" width="4.568" height="2.741" rx="0.488" transform="translate(214.252 440.603)"/><rect class="e" width="4.568" height="2.741" rx="0.488" transform="translate(223.388 440.603)"/><rect class="e" width="4.568" height="2.741" rx="0.488" transform="translate(232.524 440.603)"/><rect class="e" width="4.568" height="2.741" rx="0.488" transform="translate(241.659 440.603)"/><rect class="e" width="4.568" height="2.741" rx="0.488" transform="translate(250.795 440.603)"/><rect class="e" width="4.568" height="2.741" rx="0.488" transform="translate(259.93 440.603)"/><rect class="e" width="4.568" height="2.741" rx="0.488" transform="translate(269.066 440.603)"/><rect class="e" width="4.568" height="2.741" rx="0.488" transform="translate(278.201 440.603)"/><rect class="e" width="4.568" height="2.741" rx="0.488" transform="translate(287.337 440.603)"/><rect class="e" width="4.568" height="2.741" rx="0.488" transform="translate(296.472 440.603)"/><rect class="e" width="4.568" height="2.741" rx="0.488" transform="translate(305.608 440.603)"/><rect class="e" width="4.568" height="2.741" rx="0.488" transform="translate(314.743 440.603)"/><rect class="e" width="4.568" height="2.741" rx="0.488" transform="translate(323.879 440.603)"/><rect class="e" width="4.568" height="2.741" rx="0.488" transform="translate(333.014 440.603)"/><rect class="e" width="36.542" height="2.741" rx="0.488" transform="translate(239.832 446.085)"/><path class="e" d="M701.588,407.5H468.337a.928.928,0,1,1,0-1.855H701.588a.928.928,0,1,1,0,1.855Z" transform="translate(-324.52 -182.149)"/><ellipse class="e" cx="5.436" cy="5.557" rx="5.436" ry="5.557" transform="translate(154.259 207.647)"/><ellipse class="e" cx="5.436" cy="5.557" rx="5.436" ry="5.557" transform="translate(173.038 207.647)"/><ellipse class="e" cx="5.436" cy="5.557" rx="5.436" ry="5.557" transform="translate(191.817 207.647)"/><path class="e" d="M710.015,389.8H696.677a1.01,1.01,0,0,0,0,2.019h13.338a1.009,1.009,0,1,0,0-2.019Z" transform="translate(-344.254 -180.779)"/><path class="e" d="M710.014,393.95H696.677a1.01,1.01,0,0,0,0,2.019h13.338a1.009,1.009,0,1,0,0-2.019Z" transform="translate(-344.254 -181.138)"/><path class="e" d="M710.015,398.1H696.677a1.01,1.01,0,0,0,0,2.019h13.338a1.01,1.01,0,1,0,0-2.019Z" transform="translate(-344.254 -181.496)"/><rect class="g" width="10.055" height="5.262" rx="2.631" transform="translate(156.506 246.909)"/><rect class="g" width="10.055" height="5.262" rx="2.631" transform="translate(211.319 246.909)"/><rect class="g" width="10.055" height="5.262" rx="2.631" transform="translate(226.849 246.909)"/><rect class="g" width="35.049" height="5.262" rx="2.631" transform="translate(171.415 246.47)"/><rect class="g" width="35.049" height="5.262" rx="2.631" transform="translate(244.499 246.47)"/><rect class="g" width="10.055" height="5.262" rx="2.631" transform="translate(171.123 258.785)"/><rect class="g" width="10.055" height="5.262" rx="2.631" transform="translate(225.936 258.785)"/><rect class="g" width="10.055" height="5.262" rx="2.631" transform="translate(241.466 258.785)"/><rect class="g" width="35.049" height="5.262" rx="2.631" transform="translate(186.032 258.347)"/><rect class="g" width="35.049" height="5.262" rx="2.631" transform="translate(259.116 258.347)"/><rect class="g" width="10.055" height="5.262" rx="2.631" transform="translate(185.74 270.661)"/><rect class="g" width="10.055" height="5.262" rx="2.631" transform="translate(240.553 270.661)"/><rect class="g" width="10.055" height="5.262" rx="2.631" transform="translate(256.083 270.661)"/><rect class="g" width="35.049" height="5.262" rx="2.631" transform="translate(200.649 270.223)"/><rect class="g" width="35.049" height="5.262" rx="2.631" transform="translate(273.733 270.223)"/><rect class="g" width="10.055" height="5.262" rx="2.631" transform="translate(200.356 282.537)"/><rect class="g" width="10.055" height="5.262" rx="2.631" transform="translate(255.17 282.537)"/><rect class="g" width="10.055" height="5.262" rx="2.631" transform="translate(270.7 282.537)"/><rect class="g" width="35.049" height="5.262" rx="2.631" transform="translate(215.266 282.099)"/><rect class="g" width="10.055" height="5.262" rx="2.631" transform="translate(211.319 329.763)"/><rect class="g" width="10.055" height="5.262" rx="2.631" transform="translate(226.849 329.763)"/><rect class="g" width="35.049" height="5.262" rx="2.631" transform="translate(244.499 330.201)"/><rect class="g" width="10.055" height="5.262" rx="2.631" transform="translate(156.506 329.763)"/><rect class="g" width="35.049" height="5.262" rx="2.631" transform="translate(171.415 330.201)"/><rect class="g" width="10.055" height="5.262" rx="2.631" transform="translate(171.123 317.886)"/><rect class="g" width="10.055" height="5.262" rx="2.631" transform="translate(225.936 317.886)"/><rect class="g" width="10.055" height="5.262" rx="2.631" transform="translate(241.466 317.886)"/><rect class="g" width="35.049" height="5.262" rx="2.631" transform="translate(186.032 318.325)"/><rect class="g" width="10.055" height="5.262" rx="2.631" transform="translate(185.74 306.01)"/><rect class="g" width="10.055" height="5.262" rx="2.631" transform="translate(240.553 306.01)"/><rect class="g" width="10.055" height="5.262" rx="2.631" transform="translate(256.083 306.01)"/><rect class="g" width="35.049" height="5.262" rx="2.631" transform="translate(200.649 306.449)"/><rect class="g" width="10.055" height="5.262" rx="2.631" transform="translate(200.356 294.134)"/><rect class="g" width="10.055" height="5.262" rx="2.631" transform="translate(255.17 294.134)"/><rect class="g" width="10.055" height="5.262" rx="2.631" transform="translate(270.7 294.134)"/><rect class="g" width="35.049" height="5.262" rx="2.631" transform="translate(215.266 294.573)"/><path class="e" d="M704.7,693.113c-.557.283-1.124.566-1.681.84-14.434,7.217-25.982,11.319-41.777,15.814-1.334-14.891-2.622-41.064-3.873-57.289-.329-4.211-.658-7.747-.978-10.241a13.874,13.874,0,0,0-.8-3.883l.055,3.883.137,10.241.795,58.568a263.648,263.648,0,0,1-60.148,8.67c-1.06.027-2.1.046-3.106.064-.356.009-.7.018-1.051.018-1.142.009-2.275.018-3.417.018a264.267,264.267,0,0,1-63.528-7.7c.448-14.736.9-40.617,1.325-59.637.091-3.718.174-7.181.265-10.241.174-6.541.356-11.255.53-12.835a3.982,3.982,0,0,0-.356.886,88.761,88.761,0,0,0-1.727,11.949c-.32,3.06-.64,6.523-.959,10.241-1.7,19.76-3.471,46.628-5.3,58.02a260.807,260.807,0,0,1-31.947-10.99q-8.222-3.426-16.152-7.391c1-6.578,2.056-13.95,3.133-21.6.84-5.929,1.708-12.022,2.594-18.043,1.37-9.3,2.777-18.417,4.2-26.447,2.083-11.73,4.221-21.158,6.34-25.488,2.01-4.111,4.02-8.167,5.966-12.05.676-1.361,1.352-2.7,2.01-4.011.155-.311.311-.612.466-.914,1.4-2.75,2.75-5.381,4.038-7.847,1.105-2.11,2.156-4.1,3.152-5.938,2.412-4.458,4.458-8.012,5.975-10.259a50.48,50.48,0,0,1,26.749-20.29l.274-.073.192.082,18.682-5.737,2.732-.84,1.836-.566,6.468-4.924,3.517-2.677,3.3-2.512,6.45-4.906L619,519.537l7.774,18.719,17.412,6.367.3-.137.265-.11.274.073a50.525,50.525,0,0,1,26.749,20.29c.859,1.288,1.9,2.987,3.079,5.043,1,1.745,2.1,3.737,3.289,5.938,1.69,3.134,3.535,6.669,5.49,10.5.429.84.868,1.7,1.306,2.567q1.22,2.412,2.476,4.924c1.946,3.883,3.956,7.939,5.966,12.059,1.745,3.572,3.508,10.917,5.244,20.263,1.434,7.765,2.859,16.919,4.239,26.447,1.809,12.351-.119,27.142,1.516,38.506C704.486,691.706,704.6,692.409,704.7,693.113Z" transform="translate(-324.83 -191.782)"/><circle class="h" cx="46.442" cy="46.442" r="46.442" transform="translate(218.138 217.473)"/><path class="f" d="M672.136,381.169a24.306,24.306,0,0,0-3.627-5.938c-7.053-8.615-19.879-12.406-33.043-2.211a13.958,13.958,0,0,0-7.628.439,11.8,11.8,0,0,0-3.216,1.772,14.591,14.591,0,0,0-4.513,5.938,14.181,14.181,0,0,0-1,3.864,46.2,46.2,0,0,0-10.259-3.864,55.124,55.124,0,0,0-26.612,0,33.387,33.387,0,0,0-8.021,3.179c-4.275,2.467-6.733,5.582-7.171,9.044-6.166.347-12.58,3.59-17.357,8.907-.539.594-1.06,1.215-1.544,1.855A29.882,29.882,0,0,0,542,422.471v1.16h1.16a24.546,24.546,0,0,1,9.273,1.809,25.2,25.2,0,0,1,5.381,2.969,26.271,26.271,0,0,1,3.079,2.558,30.592,30.592,0,0,1,5.591,7.354,34.221,34.221,0,0,1,3.727,22.574,33.084,33.084,0,0,1-1.389,5.262,34.339,34.339,0,0,1-3.389,6.97c-.055.082-.1.164-.155.247-.612.978-1.2,1.973-1.745,2.978-.411.749-.795,1.517-1.151,2.284a47.448,47.448,0,0,0-2.631,6.614,48.954,48.954,0,0,0-2.229,12.369c-.064,1.115-.082,2.229-.046,3.344a47.494,47.494,0,0,0,.941,8.551c.082.384.164.758.247,1.142l.667,2.914,1.58,6.952,1.1,4.787,1.014,4.44,1.5-2.147c.512-.731,1.8-2.978,3.526-6.157,1.142-2.074,2.467-4.549,3.9-7.254,2-3.791,4.193-8.021,6.34-12.242.868-1.708,1.727-3.408,2.558-5.07,1.571-3.152,3.051-6.194,4.321-8.9,1.169-2.494,2.165-4.7,2.905-6.477.228,1.16.42,2.339.566,3.526.164,1.206.283,2.43.347,3.654.018.183.027.375.037.557l.036.749.009.219.968.128a84.974,84.974,0,0,0,16.81.128h.009a68.39,68.39,0,0,0,21.523-5.216,45,45,0,0,0,10.78-6.614,37.737,37.737,0,0,0,4.257-4.129c.329-.375.649-.749.959-1.133a37.57,37.57,0,0,0,4.613-7.217,38.179,38.179,0,0,0,2.138-5.262c3.508-10.625,3.307-23.88-.6-39.63a9.067,9.067,0,0,0,2.987-1.151c2.869-1.727,4.86-5.152,5.481-9.336l.987.265a27.5,27.5,0,0,0,9.145-6.888,22.028,22.028,0,0,0,1.407-1.855A21.744,21.744,0,0,0,672.136,381.169Z" transform="translate(-330.968 -178.799)"/><path class="i" d="M206.32,472.461l7.762-29.957,6.854,25.85Z" transform="translate(-17.834 -38.253)"/><path class="f" d="M718.635,614.285c-2.777,38.26.1,55.106-15.229,86.651a261.445,261.445,0,0,1-43.412,16.645q-2.33.658-4.668,1.279a263.634,263.634,0,0,1-60.148,8.67c-1.06.027-2.1.046-3.106.064-.356.009-.7.018-1.051.018-1.142.009-2.275.018-3.417.018a264.272,264.272,0,0,1-63.529-7.7q-3.124-.767-6.221-1.617a260.826,260.826,0,0,1-31.947-10.99q-8.222-3.426-16.152-7.391c-1.2-.6-2.394-1.206-3.572-1.827-6.057-10.652-9.5-23.606-9.574-39.173C460.8,632.108,709.372,591.153,718.635,614.285Z" transform="translate(-323.586 -199.595)"/><path class="i" d="M718.673,620.76c.142-2.369.3-4.815.485-7.363-9.264-23.131-257.832,17.823-262.026,44.646.012,2.459.117,4.846.293,7.176C467.581,638.745,703.725,599.82,718.673,620.76Z" transform="translate(-323.631 -199.518)"/><path class="f" d="M468.824,502.562a5.814,5.814,0,0,0-6.169-6.226,5.35,5.35,0,0,0-.918.115l-36.325,8.206a5.982,5.982,0,0,0-3.845,2.955,7.477,7.477,0,0,0-1.578.229,8.826,8.826,0,0,0,3.9,17.216,8.949,8.949,0,0,0,3.558-1.721L439.758,558a5.781,5.781,0,0,0,6.341,2.783l23.614-5.337a5.861,5.861,0,0,0,4.5-5.222Zm-45.478,20.027a6.313,6.313,0,1,1-2.812-12.309c.115-.029.23,0,.344-.029a5.945,5.945,0,0,0,.775,2.984l4.5,7.862a5.944,5.944,0,0,1-2.812,1.492Z" transform="translate(-319.826 -189.987)"/><path class="e" d="M463.669,496.336c.344,4.591-7.517,9.87-18.048,11.965-9.67,1.98-18.335.6-20.774-3.013a5.506,5.506,0,0,1,1.578-.631l36.325-8.206a5.342,5.342,0,0,1,.918-.115Z" transform="translate(-320.84 -189.989)"/><path class="h" d="M436.458,615.063l20.4-10.2-17-45.907L435.378,535.8a17.505,17.505,0,0,0-28.578-9.964h0a17.5,17.5,0,0,0-2.277,24.226l16.633,20.792Z" transform="translate(-318.752 -192.175)"/><path class="e" d="M459.6,598.386l-27.2,13.6,20.645,64.688a28.3,28.3,0,0,0,20.4,18.925h0a28.3,28.3,0,0,0,30.821-12.97L559.014,588.8A28.887,28.887,0,0,0,549.7,549.53h0a28.887,28.887,0,0,0-41.38,11.661l-33.414,71.2Z" transform="translate(-321.493 -194.2)"/><path class="b" d="M452.362,538.706a.451.451,0,0,1-.149-.025l-5.939-2.045a.456.456,0,0,1-.188-.74l4.417-4.81a.457.457,0,1,1,.673.617l-3.946,4.3,5.28,1.818a.457.457,0,0,1-.148.889Z" transform="translate(-322.666 -192.98)"/><path class="b" d="M461.691,536.882a.457.457,0,0,1-.318-.785l4.015-3.882-5.393-2.222a.456.456,0,0,1,.348-.844l6.038,2.488a.456.456,0,0,1,.144.75l-4.516,4.366A.457.457,0,0,1,461.691,536.882Z" transform="translate(-323.854 -192.822)"/><path class="b" d="M454.289,541.117a.436.436,0,0,1-.134-.021.457.457,0,0,1-.3-.571l4.216-13.7a.457.457,0,1,1,.873.269l-4.216,13.7A.457.457,0,0,1,454.289,541.117Z" transform="translate(-323.346 -192.596)"/></g></g></svg>